<svg width="154" height="154" viewBox="0 0 154 154" fill="none" xmlns="http://www.w3.org/2000/svg">
<path d="M36.2629 106.384L44.8216 146.297H111.334L87.8811 114.841" stroke="white" stroke-width="0.769171" stroke-linecap="round" stroke-linejoin="round"/>
<path d="M38.8308 48.7843C35.1014 48.1093 28.0145 46.956 23.7042 47.08C21.3301 46.9098 18.9802 47.6499 17.1322 49.1499C15.2842 50.65 14.0767 52.7975 13.7551 55.1559C13.4335 57.5142 14.0219 59.9066 15.4009 61.8468C16.7798 63.7869 18.8456 65.1292 21.1786 65.6008L33.2777 99.188" stroke="white" stroke-width="0.769171" stroke-linecap="round" stroke-linejoin="round"/>
<path d="M103.158 135.33H53.5133L47.2988 107.748" stroke="white" stroke-width="0.769171" stroke-linecap="round" stroke-linejoin="round"/>
<path d="M32.3859 56.4202C32.3859 58.2725 31.8366 60.0831 30.8075 61.6233C29.7784 63.1633 28.3158 64.3638 26.6045 65.0726C24.8932 65.7814 23.0102 65.9669 21.1935 65.6055C19.3768 65.2442 17.7081 64.3522 16.3983 63.0424C15.0885 61.7326 14.1966 60.0639 13.8352 58.2473C13.4738 56.4305 13.6594 54.5475 14.3682 52.8363C15.077 51.1249 16.2774 49.6623 17.8175 48.6333C19.3576 47.6041 21.1683 47.0549 23.0206 47.0549C25.5044 47.0549 27.8865 48.0416 29.6428 49.7979C31.3991 51.5543 32.3859 53.9364 32.3859 56.4202Z" stroke="white" stroke-width="0.769171" stroke-linecap="round" stroke-linejoin="round"/>
<path d="M31.5249 60.3407C31.5249 60.3407 31.2723 70.5846 32.5634 75.2722" stroke="white" stroke-width="0.769171" stroke-linecap="round" stroke-linejoin="round"/>
<path d="M95.8779 112.843L119.672 136.797C119.672 136.797 124.512 134.843 126.764 133.524C121.578 126.907 99.9425 99.6646 93.6194 97.5936H72.1795C72.1795 94.1298 72.1221 94.7925 72.3533 94.0731L69.0991 93.5374C66.6138 96.2252 63.7079 98.4914 60.4953 100.247H73.0535C74.8574 100.247 76.5874 100.963 77.8629 102.239C79.1387 103.514 79.855 105.245 79.855 107.048L47.8445 107.737C49.5588 109.268 54.3344 114.421 66.4266 112.865C75.1184 111.748 78.4713 107.761 84.4309 111.927C88.4236 114.719 102.668 129.401 112.123 138.979C114.404 138.464 116.657 137.83 118.872 137.078L95.3353 113.383C95.3353 113.383 95.2618 113.306 95.2388 113.258C95.2159 113.211 95.2029 113.159 95.2013 113.106C95.199 113.052 95.2082 113 95.2281 112.951C95.2473 112.902 95.2771 112.857 95.3146 112.82C95.3521 112.782 95.3973 112.753 95.447 112.734C95.4968 112.716 95.5496 112.707 95.6024 112.71C95.6552 112.712 95.7072 112.726 95.7547 112.749C95.8021 112.773 95.8765 112.909 95.8779 112.847V112.843Z" fill="url(#paint0_linear_2902_234)"/>
<path d="M72.3533 94.0738L69.0991 93.5358" stroke="white" stroke-width="0.769171" stroke-linecap="round" stroke-linejoin="round"/>
<path d="M47.8445 107.735C49.5588 109.266 54.3344 114.419 66.4266 112.863C75.1184 111.745 78.4713 107.759 84.4309 111.925C88.4236 114.716 102.668 129.399 112.123 138.976C115.343 138.251 121.766 136.536 126.764 133.521C121.578 126.904 99.9425 99.6616 93.6194 97.5906" stroke="white" stroke-width="0.769171" stroke-linecap="round" stroke-linejoin="round"/>
<path d="M146.502 145.107C141.467 142.078 131.808 137.009 128.805 135.442C127.977 134.979 127.276 134.32 126.764 133.523C121.767 136.538 115.343 138.252 112.123 138.978C114.436 141.322 116.461 143.357 117.981 144.839C123.114 144.988 136.635 145.328 146.502 145.107Z" fill="white"/>
<path d="M146.502 145.107C141.467 142.078 131.808 137.009 128.805 135.442C127.977 134.979 127.276 134.32 126.764 133.523C121.767 136.538 115.343 138.252 112.123 138.978C114.436 141.322 116.461 143.357 117.981 144.839C123.114 144.988 136.635 145.328 146.502 145.107Z" stroke="white" stroke-width="0.769171" stroke-linecap="round" stroke-linejoin="round"/>
<path d="M146.502 145.107C136.635 145.329 123.114 144.989 117.98 144.839C118.848 145.769 119.796 146.62 120.812 147.383C122.426 148.004 149.501 147.736 149.619 147.383C149.699 147.14 148.444 146.274 146.502 145.107Z" stroke="white" stroke-width="0.769171" stroke-linecap="round" stroke-linejoin="round"/>
<path d="M74.192 88.3777L72.1799 94.6113H111.665L100.154 83.3702" stroke="white" stroke-width="0.769171" stroke-linecap="round" stroke-linejoin="round"/>
<path d="M111.665 94.611H72.1799V97.5911H111.665V94.611Z" stroke="white" stroke-width="0.769171" stroke-linecap="round" stroke-linejoin="round"/>
<path d="M82.2775 81.394L90.2529 81.3771L95.0025 91.3524H75.574L75.8365 88.0041" stroke="white" stroke-width="0.769171" stroke-linecap="round" stroke-linejoin="round"/>
<path d="M96.1612 67.6432L90.2529 81.3771L95.0025 91.3524L103.384 71.1951L96.1612 67.6432ZM92.3721 80.5903L96.1612 72.1716L99.7506 74.365L95.0821 84.8364L92.3721 80.5903Z" fill="white"/>
<path d="M90.2529 81.3771L95.0025 91.3524L103.384 71.1951L96.1612 67.6432L90.2529 81.3771Z" stroke="white" stroke-width="0.769171" stroke-linecap="round" stroke-linejoin="round"/>
<path d="M95.0024 91.3523H95.6269C95.9798 91.3523 96.3249 91.2474 96.6188 91.0523C96.9127 90.8563 97.1415 90.5778 97.2777 90.2525L104.402 73.2056C104.503 72.964 104.525 72.6965 104.466 72.4415C104.405 72.1865 104.266 71.957 104.068 71.7859L103.384 71.1951L95.0024 91.3523Z" stroke="white" stroke-width="0.769171" stroke-linecap="round" stroke-linejoin="round"/>
<path d="M95.4089 69.3914L102.413 73.5288" stroke="white" stroke-width="0.769171" stroke-linecap="round" stroke-linejoin="round"/>
<path d="M92.3721 80.591L95.0851 84.8325L99.7506 74.3612L96.1612 72.1678L92.3721 80.591Z" stroke="#ECD41F" stroke-width="0.769171" stroke-linecap="round" stroke-linejoin="round"/>
<path d="M95.3154 74.0485L98.816 76.4593" stroke="white" stroke-width="0.769171" stroke-linecap="round" stroke-linejoin="round"/>
<path d="M95.0025 91.3524H75.574C75.5999 91.8437 75.8193 92.3044 76.1842 92.6343C76.549 92.9641 77.0296 93.1363 77.521 93.1126H95.0025V91.3524Z" stroke="white" stroke-width="0.769171" stroke-linecap="round" stroke-linejoin="round"/>
<path d="M87.2521 84.9566L86.5089 82.8458H84.1548" stroke="white" stroke-width="0.769171" stroke-linecap="round" stroke-linejoin="round"/>
<path d="M83.3184 83.4711L83.4561 84.3673" stroke="white" stroke-width="0.769171" stroke-linecap="round" stroke-linejoin="round"/>
<path d="M83.6511 85.6339L83.9144 87.3474H88.0931L87.252 84.9565H83.9542" stroke="white" stroke-width="0.769171" stroke-linecap="round" stroke-linejoin="round"/>
<path d="M89.865 84.9566L88.9122 82.8458H86.509L87.2522 84.9566H89.865Z" fill="white"/>
<path d="M89.865 84.9566L88.9122 82.8458H86.509L87.2522 84.9566H89.865Z" stroke="white" stroke-width="0.769171" stroke-linecap="round" stroke-linejoin="round"/>
<path d="M77.9235 88.4457L77.8921 89.5822H84.2588" stroke="white" stroke-width="0.769171" stroke-linecap="round" stroke-linejoin="round"/>
<path d="M87.252 84.9565L88.093 87.3474H90.9447L89.8648 84.9565H87.252Z" stroke="white" stroke-width="0.769171" stroke-linecap="round" stroke-linejoin="round"/>
<path d="M88.88 89.582H91.9543L90.9449 87.3473H88.0933L88.88 89.582Z" stroke="white" stroke-width="0.769171" stroke-linecap="round" stroke-linejoin="round"/>
<path d="M83.9146 87.3473L84.259 89.582H88.88L88.0932 87.3473H83.9146Z" stroke="white" stroke-width="0.769171" stroke-linecap="round" stroke-linejoin="round"/>
<path d="M4.21118 30.0438H144.273" stroke="white" stroke-width="0.769171" stroke-linecap="round" stroke-linejoin="round"/>
<path d="M9.26318 21.8487H31.241" stroke="white" stroke-width="0.769171" stroke-linecap="round" stroke-linejoin="round"/>
<path d="M63.2532 21.8486H85.231" stroke="white" stroke-width="0.769171" stroke-linecap="round" stroke-linejoin="round"/>
<path d="M117.243 21.8486H139.22" stroke="white" stroke-width="0.769171" stroke-linecap="round" stroke-linejoin="round"/>
<path d="M46.1182 6.0791V30.0437" stroke="white" stroke-width="0.769171" stroke-linecap="round" stroke-linejoin="round"/>
<path d="M102.366 6.07898V30.0436" stroke="white" stroke-width="0.769171" stroke-linecap="round" stroke-linejoin="round"/>
<path d="M77.4206 43.4539H72.9319C71.8035 43.4539 70.6859 43.6762 69.6433 44.1081C68.6007 44.54 67.6534 45.173 66.8555 45.971C66.0576 46.7691 65.4246 47.7164 64.9928 48.7591C64.561 49.8018 64.3388 50.9192 64.3389 52.0477V62.8557L69.9449 56.2846L75.7552 64.2317L80.7062 58.1681L86.0137 63.6286V52.0477C86.0137 50.9192 85.7918 49.8018 85.3601 48.7591C84.9277 47.7164 84.2948 46.7691 83.4973 45.971C82.6991 45.173 81.7516 44.54 80.7092 44.1081C79.6669 43.6762 78.5495 43.4539 77.4206 43.4539ZM79.213 54.7945C78.6727 54.7945 78.1446 54.6343 77.6954 54.3342C77.2462 54.034 76.8962 53.6074 76.6895 53.1083C76.4827 52.6092 76.4286 52.06 76.534 51.5302C76.6394 51.0003 76.8995 50.5136 77.2814 50.1316C77.6633 49.7496 78.15 49.4895 78.6804 49.3841C79.21 49.2787 79.7595 49.3328 80.2585 49.5396C80.7575 49.7463 81.1837 50.0963 81.4838 50.5455C81.7845 50.9947 81.9445 51.5228 81.9445 52.0631C81.9445 52.4218 81.8741 52.777 81.7363 53.1083C81.5993 53.4397 81.398 53.7408 81.1447 53.9944C80.8906 54.2481 80.5899 54.4493 80.2585 54.5866C79.9271 54.7239 79.572 54.7945 79.213 54.7945Z" fill="white"/>
<path d="M77.4206 43.4539H72.9319C71.8035 43.4539 70.6859 43.6762 69.6433 44.1081C68.6007 44.54 67.6534 45.173 66.8555 45.971C66.0576 46.7691 65.4246 47.7164 64.9928 48.7591C64.561 49.8018 64.3388 50.9192 64.3389 52.0477V62.8557L69.9449 56.2846L75.7552 64.2317L80.7062 58.1681L86.0137 63.6286V52.0477C86.0137 50.9192 85.7918 49.8018 85.3601 48.7591C84.9277 47.7164 84.2948 46.7691 83.4973 45.971C82.6991 45.173 81.7516 44.54 80.7092 44.1081C79.6669 43.6762 78.5495 43.4539 77.4206 43.4539ZM79.213 54.7945C78.6727 54.7945 78.1446 54.6343 77.6954 54.3342C77.2462 54.034 76.8962 53.6074 76.6895 53.1083C76.4827 52.6092 76.4286 52.06 76.534 51.5302C76.6394 51.0003 76.8995 50.5136 77.2814 50.1316C77.6633 49.7496 78.15 49.4895 78.6804 49.3841C79.21 49.2787 79.7595 49.3328 80.2585 49.5396C80.7575 49.7463 81.1837 50.0963 81.4838 50.5455C81.7845 50.9947 81.9445 51.5228 81.9445 52.0631C81.9445 52.4218 81.8741 52.777 81.7363 53.1083C81.5993 53.4397 81.398 53.7408 81.1447 53.9944C80.8906 54.2481 80.5899 54.4493 80.2585 54.5866C79.9271 54.7239 79.572 54.7945 79.213 54.7945Z" fill="#ECD41F" fill-opacity="0.2"/>
<path d="M77.4206 43.4539H72.9319C71.8035 43.4539 70.686 43.6762 69.6433 44.1081C68.6007 44.54 67.6534 45.173 66.8555 45.971C66.0576 46.7691 65.4246 47.7164 64.9928 48.7591C64.561 49.8018 64.3388 50.9192 64.3389 52.0477V62.8557L69.9449 56.2846L75.7552 64.2317L80.7062 58.1681L86.0137 63.6286V52.0477C86.0137 50.9192 85.7918 49.8018 85.3601 48.7591C84.9277 47.7164 84.2948 46.7691 83.4973 45.971C82.6991 45.173 81.7516 44.54 80.7092 44.1081C79.6669 43.6762 78.5495 43.4539 77.4206 43.4539Z" stroke="white" stroke-width="0.769171" stroke-linecap="round" stroke-linejoin="round"/>
<path d="M80.7062 58.1664L75.7552 64.2301L69.9449 56.2845L64.3389 62.8556V64.289C64.3391 66.5679 65.2446 68.7534 66.856 70.3648C68.4675 71.9761 70.6531 72.8813 72.9319 72.8813H77.4206C79.6998 72.8813 81.8848 71.9761 83.4966 70.3648C85.1083 68.7534 86.0137 66.5679 86.0137 64.289V63.6293L80.7062 58.1664Z" stroke="white" stroke-width="0.769171" stroke-linecap="round" stroke-linejoin="round"/>
<path d="M79.2129 54.7944C79.7532 54.7944 80.2813 54.6341 80.7305 54.334C81.1798 54.0339 81.5295 53.6073 81.7362 53.1082C81.9428 52.6091 81.9971 52.0599 81.8915 51.53C81.7867 51.0002 81.5265 50.5134 81.1446 50.1315C80.7627 49.7495 80.2759 49.4893 79.7456 49.3839C79.216 49.2785 78.6664 49.3326 78.1675 49.5393C77.6685 49.7461 77.2422 50.0962 76.9422 50.5454C76.6416 50.9945 76.4814 51.5227 76.4814 52.0629C76.4814 52.4216 76.5521 52.7767 76.6894 53.1082C76.8267 53.4396 77.0279 53.7407 77.2812 53.9943C77.5353 54.2479 77.8361 54.4491 78.1675 54.5864C78.4988 54.7236 78.854 54.7944 79.2129 54.7944Z" stroke="white" stroke-width="0.769171" stroke-linecap="round" stroke-linejoin="round"/>
<path d="M77.4205 73.9321H72.9319C70.3755 73.9285 67.9249 72.9114 66.1172 71.1037C64.3096 69.2961 63.2925 66.8455 63.2888 64.289V52.0439C63.2925 49.4874 64.3096 47.0368 66.1172 45.2292C67.9249 43.4215 70.3755 42.4044 72.9319 42.4008H77.4205C79.9767 42.4044 82.4273 43.4215 84.235 45.2292C86.0427 47.0368 87.0598 49.4874 87.0636 52.0439V64.289C87.0598 66.8455 86.0427 69.2961 84.235 71.1037C82.4273 72.9114 79.9767 73.9285 77.4205 73.9321ZM72.9319 44.5062C70.9332 44.5084 69.0169 45.3032 67.6033 46.7162C66.1897 48.1292 65.3942 50.0451 65.3912 52.0439V64.289C65.3934 66.2884 66.1886 68.2051 67.6022 69.619C69.0159 71.0328 70.9326 71.8281 72.9319 71.8306H77.4205C79.4196 71.8281 81.3367 71.0328 82.7503 69.619C84.1646 68.2052 84.9598 66.2885 84.9621 64.289V52.0439C84.9598 50.0445 84.1646 48.1278 82.7503 46.7141C81.3367 45.3005 79.4196 44.5053 77.4205 44.5031L72.9319 44.5062Z" fill="white"/>
<path d="M77.4205 73.9321H72.9319C70.3755 73.9285 67.9249 72.9114 66.1172 71.1037C64.3096 69.2961 63.2925 66.8455 63.2888 64.289V52.0439C63.2925 49.4874 64.3096 47.0368 66.1172 45.2292C67.9249 43.4215 70.3755 42.4044 72.9319 42.4008H77.4205C79.9767 42.4044 82.4273 43.4215 84.235 45.2292C86.0427 47.0368 87.0598 49.4874 87.0636 52.0439V64.289C87.0598 66.8455 86.0427 69.2961 84.235 71.1037C82.4273 72.9114 79.9767 73.9285 77.4205 73.9321ZM72.9319 44.5062C70.9332 44.5084 69.0169 45.3032 67.6033 46.7162C66.1897 48.1292 65.3942 50.0451 65.3912 52.0439V64.289C65.3934 66.2884 66.1886 68.2051 67.6022 69.619C69.0159 71.0328 70.9326 71.8281 72.9319 71.8306H77.4205C79.4196 71.8281 81.3367 71.0328 82.7503 69.619C84.1646 68.2052 84.9598 66.2885 84.9621 64.289V52.0439C84.9598 50.0445 84.1646 48.1278 82.7503 46.7141C81.3367 45.3005 79.4196 44.5053 77.4205 44.5031L72.9319 44.5062Z" stroke="white" stroke-width="0.769171" stroke-miterlimit="10"/>
<path d="M44.0511 100.246H41.4558L39.4514 98.3629C38.723 97.6787 37.764 97.293 36.7645 97.2831C35.7651 97.2724 34.7983 97.6382 34.0559 98.3071C33.0654 99.1994 32.4678 100.447 32.3932 101.778C32.3186 103.109 32.7733 104.415 33.6579 105.412L40.3216 107.897L79.8552 107.047C79.8552 105.243 79.1389 103.514 77.8631 102.238C76.5876 100.963 74.8577 100.246 73.0538 100.246H60.4956" stroke="white" stroke-width="0.769171" stroke-linecap="round" stroke-linejoin="round"/>
<path d="M36.7896 103.648C37.7689 103.648 38.5629 102.855 38.5629 101.875C38.5629 100.896 37.7689 100.102 36.7896 100.102C35.8102 100.102 35.0164 100.896 35.0164 101.875C35.0164 102.855 35.8102 103.648 36.7896 103.648Z" fill="white"/>
<path d="M42.5446 49.541C42.5538 47.5422 42.9805 45.5673 43.7974 43.7429C43.1689 43.7027 42.5388 43.7922 41.9463 44.0059C41.3538 44.2196 40.8117 44.5529 40.3535 44.985C39.4242 46.1108 38.8875 47.5089 38.8248 48.9673C38.7621 50.4257 39.1768 51.8647 40.006 53.0661C40.0168 52.2892 40.2661 51.5343 40.7201 50.9037C41.1742 50.2732 41.8111 49.7975 42.5446 49.541Z" fill="white"/>
<path d="M42.5446 49.541C42.5538 47.5422 42.9805 45.5673 43.7974 43.7429C43.1689 43.7027 42.5388 43.7922 41.9463 44.0059C41.3538 44.2196 40.8117 44.5529 40.3535 44.985C39.4242 46.1108 38.8875 47.5089 38.8248 48.9673C38.7621 50.4257 39.1768 51.8647 40.006 53.0661C40.0168 52.2892 40.2661 51.5343 40.7201 50.9037C41.1742 50.2732 41.8111 49.7975 42.5446 49.541Z" stroke="white" stroke-width="0.769171" stroke-linecap="round" stroke-linejoin="round"/>
<path d="M44.2873 49.3653C44.3159 47.4389 44.7351 45.5382 45.5195 43.7785C45.1192 43.8313 44.5246 43.7494 43.7975 43.7479C42.9806 45.5722 42.5539 47.5471 42.5447 49.546C43.1035 49.3507 43.7003 49.2888 44.2873 49.3653Z" stroke="white" stroke-width="0.769171" stroke-linecap="round" stroke-linejoin="round"/>
<path d="M50.0364 42.1298C47.1756 42.6533 46.4715 43.6459 45.521 43.7737C44.7366 45.5335 44.3174 47.4341 44.2888 49.3606C44.8113 49.4298 45.3135 49.6072 45.7635 49.8814C46.2135 50.1556 46.6014 50.5207 46.9024 50.9533C47.3792 50.2702 47.7266 49.5055 47.9272 48.6971C47.9272 48.6971 49.3759 48.7331 51.1354 48.5846C51.7901 48.5381 52.4209 48.3196 52.964 47.9511C53.5071 47.5826 53.9432 47.0772 54.2281 46.4861C55.2774 44.2107 53.6021 41.4762 50.0364 42.1298Z" fill="white"/>
<path d="M50.0364 42.1298C47.1756 42.6533 46.4715 43.6459 45.521 43.7737C44.7366 45.5335 44.3174 47.4341 44.2888 49.3606C44.8113 49.4298 45.3135 49.6072 45.7635 49.8814C46.2135 50.1556 46.6014 50.5207 46.9024 50.9533C47.3792 50.2702 47.7266 49.5055 47.9272 48.6971C47.9272 48.6971 49.3759 48.7331 51.1354 48.5846C51.7901 48.5381 52.4209 48.3196 52.964 47.9511C53.5071 47.5826 53.9432 47.0772 54.2281 46.4861C55.2774 44.2107 53.6021 41.4762 50.0364 42.1298Z" stroke="white" stroke-width="0.769171" stroke-linecap="round" stroke-linejoin="round"/>
<path d="M83.8616 83.6871C83.9573 83.6978 84.0545 83.6771 84.1379 83.6282C84.2221 83.5799 84.2879 83.5065 84.3262 83.4177C84.3652 83.3289 84.3744 83.2302 84.353 83.1361C84.3323 83.0419 84.281 82.957 84.2083 82.8934C82.82 81.6483 81.2389 80.6365 79.5268 79.8972C79.5268 79.8972 77.5707 75.8616 69.7483 76.7311C68.0618 77.5124 66.4511 78.4469 64.9367 79.5245C63.5728 80.5278 62.118 81.4011 60.5912 82.1327C60.5912 82.1327 55.0908 70.8541 47.5806 63.7764L48.3322 60.4028C51.9001 60.983 52.2927 58.7827 52.2407 55.1772C52.2039 52.9462 51.9299 50.7255 51.4233 48.5526C50.262 48.6694 49.095 48.7187 47.9281 48.7003C47.7271 49.5086 47.3798 50.2733 46.9033 50.9564C47.3507 51.6064 47.5844 52.3797 47.5717 53.1687C47.559 53.9577 47.3005 54.7231 46.8324 55.3584C46.3643 55.9936 45.7097 56.467 44.9598 56.7128C44.21 56.9584 43.4021 56.9642 42.6489 56.7293C41.7455 58.6322 40.4398 60.3164 38.8222 61.6656C32.0767 66.8224 31.6481 75.4629 33.5231 83.1238C34.8829 88.4956 37.523 93.4588 41.2177 97.5884C42.8908 99.3946 44.7981 100.968 46.8888 102.268C47.7733 102.829 48.7642 103.201 49.7993 103.362C50.8344 103.522 51.8914 103.467 52.9042 103.2C56.8574 102.192 60.5918 100.465 63.9211 98.1073C66.974 95.9155 68.9079 93.6685 74.2461 88.3173C74.2461 88.3173 76.389 87.5306 77.8431 88.3992C78.5265 88.8538 79.2681 89.2135 80.0472 89.4706C80.149 89.4967 80.2569 89.489 80.3541 89.4485C80.4513 89.4079 80.5332 89.3367 80.586 89.2456C80.6396 89.1553 80.6626 89.0497 80.6511 88.9449C80.6388 88.84 80.5937 88.7421 80.5217 88.6655C79.7028 87.8061 78.2625 86.3963 77.4712 86.2257C76.3232 85.9769 74.8224 85.7075 74.8224 85.7075C74.8224 85.7075 77.7398 86.0596 78.1745 86.0596C78.5977 86.0596 81.2411 88.2354 82.4871 88.126C82.5958 88.1168 82.6991 88.0762 82.7848 88.0089C82.8705 87.9423 82.9356 87.8512 82.9708 87.7487C83.0068 87.6461 83.0113 87.5344 82.9853 87.4288C82.9585 87.3231 82.9027 87.2275 82.8231 87.1532C81.7799 86.1782 79.5375 84.1547 78.7538 84.0292C77.7191 83.8639 75.1714 83.4292 75.1714 83.4292C75.8739 83.4583 76.576 83.4904 77.2775 83.5264C78.2992 83.5784 79.4495 83.3389 80.3603 83.9144C81.271 84.4899 82.2399 85.6088 83.3688 85.6846C83.4858 85.6869 83.6007 85.654 83.6986 85.5897C83.7966 85.5262 83.8731 85.4343 83.9183 85.3257C83.9626 85.2177 83.9741 85.0991 83.9504 84.9843C83.9267 84.8695 83.8693 84.7647 83.7851 84.6835C82.8078 83.7384 80.6075 81.6643 79.9546 81.5051C79.6738 81.4516 79.3891 81.421 79.1028 81.4141C80.0097 81.4141 80.1789 81.3727 80.4689 81.5847C80.9733 81.9521 83.2486 83.6083 83.8616 83.6871Z" stroke="white" stroke-width="0.769171" stroke-linecap="round" stroke-linejoin="round"/>
<path d="M79.5268 79.8972C79.5268 79.8972 72.6388 79.4624 71.2689 79.8972C69.6073 80.5714 68.1057 81.5862 66.8614 82.8773C63.9194 86.0044 54.2335 93.1771 52.7028 92.1278C50.5791 90.6737 48.4706 87.1991 47.465 84.8572C46.1416 81.4378 45.2128 77.8782 44.6968 74.2477" stroke="white" stroke-width="0.769171" stroke-linecap="round" stroke-linejoin="round"/>
<path d="M40.3513 60.3406C40.3513 60.3406 42.6282 65.2632 47.5783 63.7762" stroke="white" stroke-width="0.769171" stroke-linecap="round" stroke-linejoin="round"/>
<path d="M34.8186 87.1883C34.8186 87.1883 43.4783 84.926 46.5089 82.2565" stroke="white" stroke-width="0.769171" stroke-linecap="round" stroke-linejoin="round"/>
<path d="M36.7896 91.3288C36.7896 91.3288 45.4178 88.9625 48.1164 86.2142" stroke="white" stroke-width="0.769171" stroke-linecap="round" stroke-linejoin="round"/>
<path d="M60.5911 82.1328C61.3626 83.5846 62.0107 85.0992 62.5289 86.6597" stroke="white" stroke-width="0.769171" stroke-linecap="round" stroke-linejoin="round"/>
<path d="M44.1627 56.8872C46.244 56.6819 47.7649 54.8282 47.5595 52.7469C47.3543 50.6656 45.5007 49.1448 43.4193 49.35C41.338 49.5554 39.8172 51.409 40.0225 53.4903C40.2277 55.5716 42.0814 57.0925 44.1627 56.8872Z" stroke="white" stroke-width="0.769171" stroke-linecap="round" stroke-linejoin="round"/>
<path d="M43.7915 56.9055C43.7915 56.9055 44.3869 71.7023 50.844 76.7312C57.301 81.7601 62.1119 85.4375 62.1119 85.4375" stroke="white" stroke-width="0.769171" stroke-linecap="round" stroke-linejoin="round"/>
<path d="M48.3299 60.4029L46.4204 59.6115L47.6526 63.4435L48.3299 60.4029Z" fill="white"/>
<path d="M48.3299 60.4029L46.4204 59.6115L47.6526 63.4435L48.3299 60.4029Z" stroke="white" stroke-width="0.769171" stroke-linecap="round" stroke-linejoin="round"/>
<defs>
<linearGradient id="paint0_linear_2902_234" x1="87.3043" y1="93.5374" x2="87.3043" y2="138.979" gradientUnits="userSpaceOnUse">
<stop stop-color="#49AFE6"/>
<stop offset="1" stop-color="#ECD41F"/>
</linearGradient>
</defs>
</svg>
