<svg width="512" height="512" viewBox="0 0 512 512" fill="none" xmlns="http://www.w3.org/2000/svg">
<rect width="512" height="512" fill="black"/>
<path d="M188.034 154.052C188.034 116.517 218.462 86.0884 255.997 86.0884C293.533 86.0884 323.961 116.517 323.961 154.052H188.034Z" fill="white"/>
<path d="M239.007 171.046H272.989V340.956H239.007V171.046Z" fill="white"/>
<path d="M340.953 239.01L340.953 272.992L171.043 272.992L171.043 239.01L340.953 239.01Z" fill="white"/>
<path d="M304.05 183.922L328.079 207.95L207.935 328.094L183.906 304.066L304.05 183.922Z" fill="white"/>
<path d="M328.077 304.052L304.048 328.081L183.904 207.937L207.933 183.908L328.077 304.052Z" fill="white"/>
<path d="M323.961 154.057C342.728 154.057 357.943 138.843 357.943 120.075C357.943 101.307 342.728 86.0932 323.961 86.0932L323.961 154.057Z" fill="white"/>
<path d="M357.943 188.039C357.943 169.271 373.157 154.057 391.924 154.057C410.692 154.057 425.906 169.271 425.906 188.039H357.943Z" fill="white"/>
<path d="M357.943 323.962C357.943 342.729 373.157 357.943 391.924 357.943C410.692 357.943 425.906 342.729 425.906 323.962H357.943Z" fill="white"/>
<path d="M86.0884 188.039C86.0884 169.271 101.303 154.057 120.07 154.057C138.838 154.057 154.052 169.271 154.052 188.039H86.0884Z" fill="white"/>
<path d="M86.0884 323.962C86.0884 342.729 101.303 357.943 120.07 357.943C138.838 357.943 154.052 342.729 154.052 323.962H86.0884Z" fill="white"/>
<path d="M188.034 154.057C169.267 154.057 154.053 138.843 154.053 120.075C154.053 101.307 169.267 86.0932 188.034 86.0932L188.034 154.057Z" fill="white"/>
<path d="M323.961 425.912C342.728 425.911 357.943 410.697 357.943 391.93C357.943 373.162 342.728 357.948 323.961 357.948L323.961 425.912Z" fill="white"/>
<path d="M188.034 425.912C169.267 425.911 154.053 410.697 154.053 391.93C154.053 373.162 169.267 357.948 188.034 357.948L188.034 425.912Z" fill="white"/>
<path d="M323.961 357.948C323.961 395.483 293.533 425.911 255.998 425.911C218.462 425.911 188.034 395.483 188.034 357.948L323.961 357.948Z" fill="white"/>
<path d="M357.943 188.036C395.478 188.036 425.906 218.465 425.906 256C425.906 293.535 395.478 323.963 357.943 323.963L357.943 188.036Z" fill="white"/>
<path d="M154.052 323.968C116.517 323.968 86.0884 293.54 86.0884 256.005C86.0884 218.469 116.517 188.041 154.052 188.041L154.052 323.968Z" fill="white"/>
</svg>
